<svg width="21" height="22" viewBox="0 0 21 22" xmlns="http://www.w3.org/2000/svg">
<path d="M10.5225 21.4476C9.61479 21.6405 8.57306 21.7802 7.39731 21.8665C6.75467 21.9213 6.28935 21.8485 6.00137 21.648C5.71339 21.4475 5.52517 21.0622 5.43672 20.4921C5.21694 18.9194 5.06932 16.9552 4.99388 14.5994C4.91511 12.228 4.94071 9.9243 5.07068 7.68841C5.09707 7.27387 5.25796 6.95342 5.55335 6.72705C5.84874 6.50069 6.26249 6.33096 6.79461 6.21786C7.74928 6.01493 8.28317 6.17953 8.39627 6.71164C8.44284 6.93075 8.44912 7.19113 8.41509 7.4928C8.27431 8.83132 8.22501 10.6002 8.26719 12.7995C8.30604 14.9832 8.44231 17.0479 8.676 18.9939C9.15549 18.941 9.6926 18.8514 10.2873 18.725C13.0261 18.1428 14.8922 16.8793 15.8855 14.9342C16.8945 12.9859 17.1045 10.6266 16.5157 7.85653C16.1199 5.99413 15.2817 4.6674 14.0013 3.87634C12.7208 3.08527 11.1103 2.89599 9.16961 3.30849C7.91759 3.57461 6.71496 4.03471 5.56175 4.68877C4.42419 5.3395 3.43061 6.09048 2.58103 6.94172C2.40751 7.12582 2.20338 7.24282 1.96862 7.29272C1.70257 7.34927 1.468 7.28463 1.26493 7.09879C1.05852 6.8973 0.920393 6.63223 0.850535 6.30357C0.770697 5.92796 0.76843 5.60947 0.843734 5.3481C0.915711 5.07109 1.07876 4.79925 1.33287 4.53259C2.25639 3.56748 3.40598 2.74244 4.78162 2.05746C6.15394 1.35683 7.51307 0.863472 8.859 0.577385C10.7683 0.171542 12.491 0.15707 14.0269 0.533969C15.5595 0.895218 16.8378 1.63767 17.8618 2.76132C18.8858 3.88498 19.5907 5.35452 19.9766 7.16997C20.4789 9.53317 20.4485 11.6988 19.8854 13.6669C19.319 15.6193 18.239 17.272 16.6454 18.6249C15.0519 19.9778 13.0109 20.9187 10.5225 21.4476Z" fill="currentColor" />
</svg>
